<svg width="6195" height="6195" viewBox="0 0 6195 6195" fill="none" xmlns="http://www.w3.org/2000/svg">
<path d="M6192.34 3097.67C6192.34 2254.11 5801.73 1421.87 5207.81 830.239C4645.44 269.501 3884.88 2.89126 3097.67 3.00003C2296.97 3.00003 1407.73 250.791 830.239 830.239C252.749 1409.69 3 2294.69 3 3097.67C3 3884.88 269.936 4645.44 830.239 5207.92C1421.87 5801.83 2254.11 6192.34 3097.67 6192.45C4648.16 6192.45 6192.45 4648.16 6192.34 3097.67Z" stroke="#F13E16" stroke-width="5" stroke-miterlimit="10"/>
<path d="M3045.24 5858.61C1618.1 5856.76 227.949 4525.02 231.974 3045.24C233.823 2342.22 392.635 1468.97 930.858 930.856C1471.04 390.676 2338.85 235.67 3045.24 231.972C4529.27 223.923 5861.66 1623.21 5858.62 3045.24C5857.09 3749.45 5419.49 4400.26 4909.87 4909.87C4402.98 5416.88 3750.32 5859.48 3045.24 5858.61Z" stroke="#F13E16" stroke-width="5" stroke-miterlimit="10"/>
<path d="M5437.32 2905.25C5437.32 1663.35 4224.69 362.831 2905.24 373.273C2277.17 378.277 1479.3 497.93 988.397 988.4C499.776 1477.13 376.316 2280.66 373.27 2905.25C367.396 4220.56 1663.35 5437.87 2905.24 5437.33C4027.26 5436.35 5436.34 4027.16 5437.32 2905.25Z" stroke="#F13E16" stroke-width="5" stroke-miterlimit="10"/>
<path d="M2697.16 4947.83C1580.14 4958.71 442.234 3876.5 446.477 2697.16C448.543 2131.52 568.958 1441.23 1005.15 1005.15C1437.97 572.222 2136.42 445.607 2697.16 446.477C3869.97 448.326 4951.53 1572.41 4947.83 2697.16C4944.46 3729.33 3713.56 4937.94 2697.16 4947.83Z" stroke="#F13E16" stroke-width="5" stroke-miterlimit="10"/>
<path d="M4409.83 2440.45C4411.68 1435.79 3487.85 469.105 2440.99 471.606C1328.76 473.782 473.888 1328.65 472.148 2440.45C470.081 3487.85 1436.77 4411.68 2440.99 4409.83C3384.62 4408.09 4408.09 3384.51 4409.83 2440.45Z" stroke="#F13E16" stroke-width="5" stroke-miterlimit="10"/>
<path d="M2154.69 3842.78C1254.03 3842.78 466.493 3066.34 466.711 2154.69C466.711 1211.93 1211.61 466.928 2154.69 466.711C3066.34 466.711 3842.89 1254.03 3842.78 2154.69C3842.57 3024.9 3024.79 3842.57 2154.69 3842.78Z" stroke="#F13E16" stroke-width="5" stroke-miterlimit="10"/>
<path d="M3266.05 1859.37C3266.05 1105.44 2609.7 448.002 1859.36 452.788C1109.03 457.574 452.894 1098.26 452.785 1859.37C452.785 2614.27 1110.12 3261.59 1859.36 3266.05C2608.61 3270.51 3265.94 2607.53 3266.05 1859.37Z" stroke="#F13E16" stroke-width="5" stroke-miterlimit="10"/>
<path d="M1574.04 2699.33C975.778 2707.6 447.237 2131.09 448.651 1574.05C450.065 1022.12 1006.56 443.761 1574.04 448.656C2137.72 453.66 2700.85 982.527 2699.33 1574.05C2697.81 2176.88 2173.07 2691.07 1574.04 2699.33Z" stroke="#F13E16" stroke-width="5" stroke-miterlimit="10"/>
<path d="M2162.2 1318.1C2163.94 874.727 1730.58 471.931 1318.21 474.106C915.193 476.173 476.283 915.192 474.216 1318.1C472.04 1730.57 874.837 2163.83 1318.21 2162.09C1776.26 2160.35 2160.35 1777.02 2162.2 1318.1Z" stroke="#F13E16" stroke-width="5" stroke-miterlimit="10"/>
<path d="M1111.1 1673.79C818.164 1681.84 546.66 1371.4 548.509 1111.1C550.25 855.583 842.204 544.593 1111.1 548.509C1377.49 552.316 1675.1 825.343 1673.79 1111.1C1672.71 1408.71 1405.01 1665.74 1111.1 1673.79Z" stroke="#F13E16" stroke-width="5" stroke-miterlimit="10"/>
<path d="M1254.03 972.628C1254.03 828.935 1106.09 695.468 972.625 691.334C832.195 686.874 692.419 845.469 691.331 972.628C690.243 1099.79 821.862 1260.12 972.625 1254.03C1116.64 1248.48 1254.46 1120.56 1254.03 972.628Z" stroke="#F13E16" stroke-width="5" stroke-miterlimit="10"/>
<path d="M922.152 922.156C926.938 1359.87 1157.11 1810.85 1335.5 2199.62C1545.55 2657.89 1777.46 3105.94 2007.41 3554.42C2247.48 4022.81 2490.37 4490.65 2707.49 4970.24C2875.33 5340.95 3096.14 5775.19 3097.99 6192.34" stroke="#F13E16" stroke-width="5" stroke-miterlimit="10"/>
<path d="M922.152 922.156C2202.77 2480.37 3661.78 3892.93 4982.53 5417.75" stroke="#F13E16" stroke-width="5" stroke-miterlimit="10"/>
<path d="M922.152 922.156C1361.17 1021.47 1775.72 1288.4 2160.67 1511.07C2618.73 1775.94 3068.08 2055.71 3518.63 2332.87C4338.58 2837.26 5189.75 3447.28 6114.56 3742.93" stroke="#F13E16" stroke-width="5" stroke-miterlimit="10"/>
<path d="M922.152 922.154C1258.49 758.447 1737.97 889.522 2078 968.71C2522.79 1071.72 2959.09 1207.36 3397.89 1334.09C4164.65 1555.77 5039.31 1854.91 5847.3 1719.81" stroke="#F13E16" stroke-width="5" stroke-miterlimit="10"/>
<path d="M922.152 922.155C1201.27 391.112 2237.47 600.722 2713.47 627.699C3285.85 660.331 4015.84 717.983 4474.44 302.895" stroke="#F13E16" stroke-width="5" stroke-miterlimit="10"/>
<path d="M922.156 922.156C893.112 -61.9382 2546.39 1008.09 2614.92 36.5039" stroke="#F13E16" stroke-width="5" stroke-miterlimit="10"/>
<path d="M922.155 922.155C853.963 866.214 792.949 802.057 740.5 731.145C833.721 815.99 920.741 909.972 1018.64 989.269C964.252 928.282 908.087 868.963 850.146 811.312" stroke="#F13E16" stroke-width="5" stroke-miterlimit="10"/>
<path d="M922.153 922.154C-38.6627 861.566 1000.15 2473.3 50.207 2521.7" stroke="#F13E16" stroke-width="5" stroke-miterlimit="10"/>
<path d="M922.153 922.156C380.667 1159.83 564.716 2171.12 584.948 2621.99C608.879 3160.87 667.291 3895.87 225.988 4300.3" stroke="#F13E16" stroke-width="5" stroke-miterlimit="10"/>
<path d="M922.153 922.156C711.999 1240.98 827.627 1748.85 891.37 2096.06C965.664 2500.17 1067.37 2898.94 1159.72 3299.23C1331.69 4044.45 1541.09 4872.24 1355.52 5634.32" stroke="#F13E16" stroke-width="5" stroke-miterlimit="10"/>
</svg>
