<svg width="231" height="239" viewBox="0 0 231 239" fill="none" xmlns="http://www.w3.org/2000/svg">
<path d="M168.874 26.1575C172.465 19.37 169.894 10.8735 162.735 8.09531C144.169 0.889808 124.021 -1.58803 104.125 0.993191C79.6152 4.17306 56.6942 14.8743 38.5192 31.623C20.3442 48.3717 7.80952 70.3438 2.64159 94.5128C-2.52634 118.682 -0.0732271 143.859 9.66305 166.575C19.3993 189.292 35.9397 208.431 57.006 221.357C78.0723 234.282 102.628 240.357 127.291 238.746C151.953 237.134 175.51 227.916 194.715 212.36C210.305 199.732 222.405 183.433 229.991 165.019C232.916 157.919 228.536 150.197 221.145 148.116V148.116C213.754 146.036 206.17 150.404 202.996 157.396C197.135 170.309 188.331 181.747 177.213 190.752C162.477 202.688 144.402 209.762 125.478 210.998C106.554 212.235 87.7122 207.573 71.5479 197.655C55.3835 187.738 42.692 173.052 35.2212 155.621C27.7505 138.191 25.8682 118.872 29.8336 100.327C33.799 81.782 43.417 64.9227 57.3628 52.0713C71.3086 39.2199 88.8961 31.0087 107.703 28.5688C121.891 26.7281 136.246 28.2403 149.638 32.9012C156.89 35.4251 165.284 32.945 168.874 26.1575V26.1575Z" fill="#CB4747"/>
</svg>
