<svg width="1154" height="194" viewBox="0 0 1154 194" fill="none" xmlns="http://www.w3.org/2000/svg">
<path d="M97.5 44H52.5V96.5L0 96.5L1.96701e-06 141.5H52.5V194H97.5V141.5H150V96.5L97.5 96.5V44Z" fill="white"/>
<path d="M1086.36 38.5373L1122.07 2.82843L1151.06 31.8198L1115.35 67.5287L1113.93 68.9429L1115.35 70.3571L1151.06 106.066L1122.07 135.057L1086.36 99.3485L1084.94 97.9343L1083.53 99.3485L1047.82 135.057L1018.83 106.066L1054.54 70.3571L1055.95 68.9429L1054.54 67.5287L1018.83 31.8198L1047.82 2.82843L1083.53 38.5373L1084.94 39.9515L1086.36 38.5373Z" stroke="#F50909" stroke-width="4"/>
</svg>
